<?xml version="1.0" encoding="UTF-8"?>
<svg id="Layer_1" data-name="Layer 1" xmlns="http://www.w3.org/2000/svg" viewBox="0 0 81.7 80.17">
  <defs>
    <style>
      .cls-1 {
        fill: #d9dcfb;
      }
    </style>
  </defs>
  <path class="cls-1" d="M41.86,21.87c6.79,0,12.75,4.81,14.17,11.45l.32,1.48,1.51,.09c4.2,.26,7.5,3.76,7.5,7.97s-3.56,7.98-7.96,8c-.05,0-.09,0-.14,0l-2.04-.04v.04H26.31c-5.49-.03-9.95-4.52-9.95-10s4.49-10,10-10c.18,0,.35,.01,.52,.02h.15s1.32,.1,1.32,.1l.6-1.18c2.49-4.9,7.44-7.94,12.92-7.94"/>
  <g>
    <path d="M57.98,32.9c-1.6-7.45-8.21-13.03-16.13-13.03-6.42,0-11.98,3.68-14.7,9.04-.27-.02-.53-.04-.8-.04-6.63,0-12,5.37-12,12s5.34,11.96,11.94,12h0s2.06,0,2.06,0v-2h-2.05c-5.48-.03-9.95-4.52-9.95-10s4.48-10,10-10c.17,0,.35,.01,.52,.02h.15s1.32,.1,1.32,.1l.6-1.18c2.49-4.9,7.44-7.94,12.92-7.94,6.79,0,12.75,4.81,14.17,11.45l.32,1.48,1.51,.1c4.2,.26,7.5,3.76,7.5,7.97s-3.57,7.98-7.96,8c-.05,0-.09,0-.14,0h-2.04s-.86,0-.86,0v2h2.86s.09,0,.14,0c5.52,0,10-4.48,10-10,0-5.31-4.15-9.64-9.37-9.97Z"/>
    <polygon points="36.35 51.89 36.35 49.26 38.52 50.48 39.21 49.26 36.74 47.87 39.21 46.48 38.52 45.26 36.35 46.48 36.35 43.89 34.35 43.89 34.35 46.52 32.1 45.26 31.41 46.48 33.88 47.87 31.41 49.26 32.1 50.48 34.35 49.21 34.35 51.89 36.35 51.89"/>
    <polygon points="41.51 56.24 39.34 57.46 39.34 54.87 37.34 54.87 37.34 57.51 35.09 56.24 34.4 57.46 36.87 58.85 34.4 60.24 35.09 61.46 37.34 60.19 37.34 62.87 39.34 62.87 39.34 60.24 41.51 61.46 42.2 60.24 39.73 58.85 42.2 57.46 41.51 56.24"/>
    <polygon points="50.53 49.26 48.36 50.48 48.36 47.89 46.36 47.89 46.36 50.52 44.1 49.26 43.42 50.48 45.89 51.87 43.42 53.26 44.1 54.48 46.36 53.21 46.36 55.89 48.36 55.89 48.36 53.26 50.53 54.48 51.21 53.26 48.74 51.87 51.21 50.48 50.53 49.26"/>
  </g>
</svg>