<?xml version="1.0" encoding="UTF-8"?>
<svg id="Layer_1" data-name="Layer 1" xmlns="http://www.w3.org/2000/svg" viewBox="0 0 81.7 80.17">
  <path d="M64.01,32.38v-.04H25.63c-1.1,0-2-.9-2-2s.9-2,2-2H58.63c2.76,0,5-2.24,5-5s-2.24-5-5-5H20.75s-.08,0-.12,0c-2.76,0-5,2.24-5,5s2.24,5,5,5v-2c-1.65,0-3-1.35-3-3s1.35-3,3-3H58.63c1.65,0,3,1.35,3,3s-1.35,3-3,3H25.63c-2.21,0-4,1.79-4,4s1.79,4,4,4H63.63c1.1,0,2,.9,2,2s-.9,2-2,2H31.63c-2.21,0-4,1.79-4,4s1.79,4,4,4h22c1.1,0,2,.9,2,2s-.9,2-2,2H29.62c-2.2,0-3.99,1.79-3.99,4s1.79,3.99,3.99,4h0s12.01,0,12.01,0c1.1,0,2,.9,2,2s-.9,2-2,2h-2c-2.21,0-4,1.79-4,4s1.79,4,4,4v-2c-1.1,0-2-.9-2-2s.9-2,2-2h2c2.21,0,4-1.79,4-4s-1.79-4-4-4h-12c-1.1,0-2-.9-2-2s.9-2,2-2h24c2.21,0,4-1.79,4-4s-1.7-3.89-3.83-3.98v-.02H31.63c-1.1,0-2-.9-2-2s.9-2,2-2H63.63c2.21,0,4-1.79,4-4,0-2.08-1.59-3.77-3.62-3.96Z"/>
</svg>