<?xml version="1.0" encoding="UTF-8"?>
<svg id="Layer_1" data-name="Layer 1" xmlns="http://www.w3.org/2000/svg" viewBox="0 0 81.7 80.17">
  <defs>
    <style>
      .cls-1 {
        fill: #d9dcfb;
      }
    </style>
  </defs>
  <path class="cls-1" d="M42.88,19.95c7.09,0,13.31,5.03,14.8,11.95l.33,1.55,1.58,.1c4.39,.27,7.83,3.93,7.83,8.32s-3.72,8.33-8.31,8.35c-.05,0-.1,0-.14,0l-2.13-.04v.04H26.64c-5.73-.03-10.39-4.72-10.39-10.44s4.68-10.44,10.44-10.44c.18,0,.36,.01,.54,.03h.16s1.37,.1,1.37,.1l.62-1.23c2.6-5.12,7.77-8.29,13.49-8.29"/>
  <rect x="39.76" y="48.75" width="2" height="7"/>
  <rect x="47.76" y="44.75" width="2" height="7"/>
  <rect x="31.76" y="44.75" width="2" height="7"/>
  <rect x="39.76" y="58.75" width="2" height="7"/>
  <rect x="47.76" y="54.75" width="2" height="7"/>
  <rect x="31.76" y="54.75" width="2" height="7"/>
  <path d="M58.38,31.76c-1.6-7.45-8.21-13.03-16.13-13.03-6.42,0-11.98,3.68-14.7,9.03-.27-.02-.53-.04-.8-.04-6.63,0-12,5.37-12,12s5.34,11.97,11.94,12h0s2.06,0,2.06,0v-2h-2.05c-5.48-.03-9.95-4.52-9.95-10s4.48-10,10-10c.17,0,.35,.01,.52,.03h.15s1.32,.1,1.32,.1l.6-1.18c2.49-4.9,7.44-7.94,12.92-7.94,6.79,0,12.75,4.81,14.17,11.45l.32,1.48,1.51,.1c4.2,.26,7.5,3.76,7.5,7.97s-3.57,7.98-7.96,8c-.05,0-.09,0-.14,0h-2.04s-2.86,0-2.86,0v2h4.86s.09,0,.14,0c5.52,0,10-4.48,10-10,0-5.31-4.15-9.64-9.37-9.97Z"/>
</svg>