<?xml version="1.0" encoding="UTF-8"?>
<svg id="Layer_1" data-name="Layer 1" xmlns="http://www.w3.org/2000/svg" viewBox="0 0 81.7 80.17">
  <defs>
    <style>
      .cls-1 {
        fill: #d9dcfb;
      }
    </style>
  </defs>
  <path class="cls-1" d="M58.51,35.37l-1.53-.09-.32-1.45c-1.43-6.5-7.44-11.23-14.29-11.23-5.52,0-10.51,2.98-13.03,7.79l-.6,1.15-1.33-.09h-.15c-.17-.02-.35-.04-.52-.04-3.93,0-7.33,2.2-8.99,5.4H62.68c-1.19-.83-2.62-1.35-4.17-1.44Z"/>
  <g>
    <rect x="12.91" y="45.82" width="56" height="2"/>
    <rect x="16.91" y="51.82" width="50" height="2"/>
    <rect x="22.91" y="57.82" width="36" height="2"/>
    <rect x="14.91" y="39.82" width="52" height="2"/>
    <path d="M26.79,31.81c.18,0,.35,.01,.52,.02h.15s1.32,.1,1.32,.1l.6-1.18c2.49-4.9,7.44-7.94,12.92-7.94,6.79,0,12.75,4.81,14.17,11.45l.32,1.48,1.51,.1c1.21,.08,2.34,.42,3.34,.98h3.29c-1.68-1.7-3.96-2.81-6.5-2.97-1.6-7.45-8.21-13.03-16.13-13.03-6.42,0-11.98,3.68-14.7,9.04-.27-.02-.53-.04-.8-.04-4.84,0-9,2.87-10.9,7.01h2.25c1.73-2.99,4.96-5.01,8.65-5.01Z"/>
  </g>
</svg>