<?xml version="1.0" encoding="UTF-8"?>
<svg id="Layer_1" data-name="Layer 1" xmlns="http://www.w3.org/2000/svg" viewBox="0 0 81.7 80.17">
  <defs>
    <style>
      .cls-1 {
        fill: #d9dcfb;
      }

      .cls-2 {
        fill: #ffb317;
      }
    </style>
  </defs>
  <path class="cls-2" d="M32.86,40.94c-4.46,0-8.09-3.63-8.09-8.09s3.63-8.09,8.09-8.09,8.09,3.63,8.09,8.09-3.63,8.09-8.09,8.09Z"/>
  <path class="cls-1" d="M47.54,28.82c6.44,0,12.09,4.57,13.44,10.86l.3,1.41,1.44,.09c3.99,.25,7.11,3.57,7.11,7.56s-3.38,7.56-7.55,7.59c-.04,0-.09,0-.13,0l-1.94-.03v.04h-27.42c-5.2-.03-9.43-4.28-9.43-9.48s4.25-9.48,9.48-9.48c.17,0,.33,.01,.49,.02h.14s1.25,.09,1.25,.09l.57-1.12c2.36-4.65,7.06-7.53,12.25-7.53"/>
  <g>
    <rect x="31.86" y="13.13" width="2" height="7.97"/>
    <rect x="12.86" y="32.04" width="7.97" height="2"/>
    <rect x="20.52" y="17.79" width="2" height="7.97" transform="translate(-9.09 21.6) rotate(-45)"/>
    <rect x="40.06" y="20.78" width="7.97" height="2" transform="translate(-2.5 37.52) rotate(-45)"/>
    <path d="M62.37,38.92c-1.44-6.74-7.43-11.8-14.61-11.8-2.18,0-4.26,.47-6.13,1.31-1.67-3.2-5.01-5.39-8.87-5.39-5.52,0-10,4.48-10,10,0,2.46,.9,4.7,2.37,6.44-1.43,1.84-2.29,4.14-2.29,6.65,0,5.98,4.84,10.84,10.81,10.86h0s1.19,0,1.19,0v-2h-1.18c-4.86-.03-8.82-4-8.82-8.87s3.98-8.87,8.87-8.87c.15,0,.3,.01,.45,.02h.15s1.31,.1,1.31,.1l.6-1.18c2.22-4.37,6.64-7.09,11.53-7.09,6.06,0,11.38,4.3,12.65,10.22l.32,1.48,1.51,.09c3.71,.23,6.61,3.32,6.61,7.03s-3.14,7.03-7.02,7.06c-.04,0-.08,0-.12,0h-2.05s-.82,0-.82,0v2h2.82s.08,0,.12,0c5,0,9.06-4.05,9.06-9.06s-3.75-8.73-8.49-9.02Zm-27.92-3.62c-.24-.02-.48-.04-.72-.04-2.77,0-5.28,1.04-7.2,2.74-1.09-1.37-1.75-3.09-1.75-4.97,0-4.41,3.59-8,8-8,3.09,0,5.76,1.77,7.09,4.35-2.3,1.44-4.18,3.49-5.41,5.92Z"/>
    <rect x="45.86" y="57.02" width="2" height="4"/>
    <rect x="53.86" y="53" width="2" height="4.02"/>
    <rect x="37.86" y="53" width="2" height="4.02"/>
    <circle cx="54.86" cy="62.04" r="1.5"/>
    <circle cx="46.86" cy="66.01" r="1.5"/>
    <circle cx="38.86" cy="62" r="1.5"/>
  </g>
</svg>