<?xml version="1.0" encoding="UTF-8"?>
<svg id="Layer_1" data-name="Layer 1" xmlns="http://www.w3.org/2000/svg" viewBox="0 0 81.7 80.17">
  <defs>
    <style>
      .cls-1 {
        fill: #d9dcfb;
      }
    </style>
  </defs>
  <path class="cls-1" d="M41.97,20.59c6.79,0,12.75,4.81,14.17,11.45l.32,1.48,1.51,.09c4.2,.26,7.5,3.76,7.5,7.97s-3.56,7.98-7.96,8c-.05,0-.09,0-.14,0l-2.04-.04v.04H26.41c-5.49-.03-9.95-4.52-9.95-10s4.49-10,10-10c.18,0,.35,.01,.52,.02h.15s1.32,.1,1.32,.1l.6-1.18c2.49-4.9,7.44-7.94,12.92-7.94"/>
  <g>
    <path d="M57.98,31.61c-1.6-7.45-8.21-13.03-16.13-13.03-6.42,0-11.98,3.68-14.7,9.04-.27-.02-.53-.04-.8-.04-6.63,0-12,5.37-12,12s5.34,11.96,11.94,12h0s6.06,0,6.06,0v-2h-6.05c-5.49-.03-9.95-4.52-9.95-10s4.49-10,10-10c.18,0,.35,.01,.52,.02h.15s1.32,.1,1.32,.1l.6-1.18c2.49-4.9,7.44-7.94,12.92-7.94,6.79,0,12.75,4.81,14.17,11.45l.32,1.48,1.51,.1c4.2,.26,7.5,3.76,7.5,7.97s-3.56,7.98-7.96,8c-.05,0-.09,0-.14,0h-5.04s.14,0,.14,0v2h4.86s.09,0,.14,0c5.52,0,10-4.48,10-10,0-5.31-4.15-9.64-9.37-9.97Z"/>
    <polygon points="42.19 51.59 43.96 51.59 44.39 51.59 46.4 51.59 39.99 42.42 38.35 43.57 42.56 49.59 40.79 49.59 38.35 49.59 39.62 51.4 40.73 52.99 46.71 61.59 48.35 60.44 42.37 51.84 42.19 51.59"/>
  </g>
</svg>