<?xml version="1.0" encoding="UTF-8"?>
<svg id="Layer_1" data-name="Layer 1" xmlns="http://www.w3.org/2000/svg" viewBox="0 0 81.7 80.17">
  <defs>
    <style>
      .cls-1 {
        fill: #d9dcfb;
      }
    </style>
  </defs>
  <path d="M43.66,22.76c-6.42,0-11.98,3.68-14.7,9.03-.27-.02-.53-.04-.8-.04-6.63,0-12,5.37-12,12s5.34,11.96,11.94,12h0s30.92,0,30.92,0h0s.09,0,.14,0c5.52,0,10-4.48,10-10s-4.15-9.64-9.37-9.97c-1.6-7.44-8.21-13.03-16.13-13.03h0Z"/>
  <path class="cls-1" d="M43.66,24.76c6.79,0,12.75,4.81,14.17,11.45l.32,1.48,1.51,.09c4.2,.26,7.5,3.76,7.5,7.97s-3.56,7.98-7.96,8c-.05,0-.09,0-.14,0l-2.04-.04v.04H28.11c-5.49-.03-9.95-4.52-9.95-10s4.49-10,10-10c.18,0,.35,.01,.52,.02h.15s1.32,.1,1.32,.1l.6-1.18c2.49-4.9,7.44-7.94,12.92-7.94"/>
</svg>